<svg id="visual" viewBox="0 0 900 900" width="900" height="900" xmlns="http://www.w3.org/2000/svg" xmlns:xlink="http://www.w3.org/1999/xlink" version="1.1"><g transform="translate(894.8223875926657 962.5902896307508)"><path d="M211.1 -355.2C272.1 -330.3 319.2 -270.9 319.9 -206C320.6 -141 274.8 -70.5 268 -3.9C261.2 62.7 293.4 125.3 279.3 166.9C265.1 208.5 204.5 228.9 150.3 237.9C96 246.9 48 244.5 0.8 243C-46.3 241.6 -92.7 241.2 -133.4 224.3C-174.1 207.5 -209.1 174.3 -246.1 134.1C-283.1 94 -322.1 47 -305.7 9.4C-289.4 -28.1 -217.8 -56.3 -179.4 -94.1C-141.1 -131.9 -136.1 -179.4 -111.7 -225.5C-87.3 -271.6 -43.7 -316.3 15.7 -343.4C75 -370.6 150 -380.1 211.1 -355.2" fill="#b6a8ed"></path></g></svg>